<?xml version="1.0" standalone="no"?>
<!DOCTYPE svg PUBLIC "-//W3C//DTD SVG 20010904//EN"
 "http://www.w3.org/TR/2001/REC-SVG-20010904/DTD/svg10.dtd">
<svg version="1.0" xmlns="http://www.w3.org/2000/svg"
 width="598.000000pt" height="554.000000pt" viewBox="0 0 598.000000 554.000000"
 preserveAspectRatio="xMidYMid meet">

<g transform="translate(0.000000,554.000000) scale(0.100000,-0.100000)"
fill="#000000" stroke="none">
<path d="M0 2770 l0 -2770 934 0 c558 0 937 4 941 9 3 5 -2 16 -10 24 -20 20
-19 30 3 50 25 23 32 21 32 -6 0 -41 23 -77 49 -77 18 0 22 4 16 18 -4 9 -10
27 -12 39 -3 13 -11 23 -18 23 -7 0 -15 7 -19 15 -3 9 0 15 9 15 8 0 15 3 16
8 0 4 2 32 3 62 2 35 7 54 14 53 7 -2 12 4 12 13 0 14 3 14 15 4 13 -10 15 -9
15 9 0 28 -3 37 -12 34 -5 -2 -8 4 -8 12 0 20 22 65 32 65 4 0 8 7 8 15 0 8 6
15 14 15 8 0 16 7 20 15 3 8 12 15 21 15 9 0 30 8 48 17 19 10 61 18 101 19
37 2 74 9 82 15 8 7 31 14 50 16 20 2 49 10 64 18 43 22 221 82 284 95 68 14
200 -5 192 -27 -3 -8 2 -13 14 -13 13 0 33 -20 57 -57 47 -70 57 -47 18 40
-14 32 -25 65 -25 75 0 16 -16 49 -94 197 -41 76 -71 113 -83 101 -4 -4 -8
-32 -8 -62 0 -48 2 -54 21 -54 16 0 21 -6 22 -30 0 -24 -8 -35 -50 -66 -28
-20 -64 -41 -79 -46 -16 -5 -29 -15 -29 -20 0 -6 -9 -8 -20 -5 -11 3 -20 1
-20 -5 0 -5 -6 -8 -12 -5 -7 2 -28 -2 -46 -10 -17 -7 -32 -10 -32 -7 0 4 -6 2
-13 -3 -19 -16 -64 -25 -167 -33 -60 -5 -97 -4 -101 3 -7 10 -212 13 -228 2
-17 -10 -172 -7 -185 4 -20 17 -155 -5 -181 -29 -11 -10 -33 -24 -49 -30 -40
-15 -133 -2 -172 23 -40 27 -76 79 -80 117 -2 17 -8 39 -14 50 -5 10 -10 27
-10 36 0 10 -6 25 -13 33 -15 18 -33 118 -42 231 -11 145 -14 156 -48 171 -44
20 -44 53 1 57 31 3 32 4 32 51 0 31 -5 53 -15 61 -17 14 -19 49 -5 134 5 34
11 105 13 158 2 79 0 95 -10 86 -19 -16 -16 -3 23 107 32 90 35 107 30 165 -5
50 -2 81 13 130 12 41 21 113 26 195 3 71 12 159 20 195 17 82 89 251 118 278
28 26 175 114 247 148 49 23 60 25 105 16 60 -12 169 -5 206 14 15 7 42 10 67
7 38 -5 42 -4 42 16 0 17 -6 21 -30 21 -46 0 -106 28 -119 56 -13 30 -14 64
-1 84 8 12 10 10 10 -10 0 -29 13 -52 26 -49 29 5 52 -3 57 -21 7 -25 67 -27
122 -4 22 9 41 12 47 6 5 -5 25 -6 46 -3 l37 7 -3 132 c-2 73 0 132 5 132 4 0
28 -5 53 -11 25 -6 55 -13 68 -14 12 -2 51 -18 85 -36 61 -32 64 -33 179 -31
l117 2 73 46 c86 55 148 113 141 131 -3 8 3 13 16 13 12 0 33 11 45 25 l24 26
6 -48 c3 -26 8 -94 12 -150 3 -57 9 -103 13 -103 4 0 14 -11 21 -25 15 -27 40
-34 40 -10 0 20 8 19 50 -6 19 -12 56 -23 81 -25 39 -3 49 0 70 23 l24 26 -32
-6 c-41 -8 -41 -3 -4 29 16 14 31 35 34 47 3 21 4 20 15 -6 31 -74 -7 -124
-106 -139 -31 -5 -58 -10 -59 -12 -12 -12 22 -56 57 -74 l41 -20 102 34 c56
19 149 49 207 66 58 17 115 39 128 49 12 10 42 20 65 24 50 9 67 17 132 66 78
59 233 128 328 145 45 8 107 22 138 30 30 8 76 14 102 14 26 0 47 1 47 3 0 13
-34 114 -42 124 -6 7 -5 14 2 18 5 3 10 34 11 68 0 34 3 56 6 50 7 -18 33 -16
33 2 0 49 95 181 150 209 l27 13 -16 -28 c-9 -16 -19 -29 -22 -29 -10 0 -89
-105 -110 -147 -33 -66 -40 -103 -28 -173 15 -95 19 -110 27 -110 13 0 32 54
32 92 0 26 6 40 19 47 10 6 22 22 25 36 4 14 13 25 20 25 8 0 17 8 19 18 4 15
6 14 12 -4 5 -15 13 -20 26 -17 20 6 27 -11 9 -22 -6 -3 -7 -17 -4 -30 5 -18
-1 -30 -22 -48 -26 -23 -27 -25 -11 -47 8 -12 13 -28 11 -34 -3 -7 26 -32 66
-56 38 -25 70 -50 70 -55 0 -6 15 -19 34 -28 28 -13 54 -15 138 -10 93 5 105
4 119 -13 18 -21 35 -119 19 -109 -6 3 -10 -1 -10 -9 0 -9 -4 -16 -9 -16 -5 0
-7 -8 -4 -19 3 -12 -5 -25 -21 -39 -14 -11 -26 -23 -26 -26 0 -12 16 -5 42 19
26 24 28 25 48 8 24 -21 26 -33 4 -33 -9 0 -14 -5 -12 -12 5 -13 57 -18 64 -6
3 4 11 5 20 1 12 -4 13 -1 4 21 -8 22 -7 26 10 26 13 0 18 -5 14 -15 -4 -8 1
-17 9 -21 9 -3 13 -13 10 -24 -3 -11 -11 -16 -19 -13 -8 3 -14 -1 -14 -11 0
-49 -103 -143 -165 -152 -11 -2 -69 -15 -130 -29 -60 -14 -120 -28 -131 -30
-66 -14 -82 -77 -23 -90 46 -10 29 -30 -27 -30 -52 -1 -92 -10 -133 -31 -25
-14 -25 -14 17 -14 23 0 42 -4 42 -8 0 -4 -21 -28 -46 -52 -25 -25 -54 -61
-64 -80 -10 -19 -26 -43 -37 -52 -47 -44 -92 -78 -104 -78 -8 -1 -24 -9 -36
-19 -21 -18 -23 -28 -23 -122 l0 -102 -25 27 c-14 15 -25 31 -25 37 0 5 -11 9
-25 9 -22 0 -25 4 -25 36 0 20 -4 34 -9 32 -12 -4 -125 -139 -140 -167 -7 -11
-16 -21 -21 -21 -6 0 6 21 25 48 52 70 78 122 62 122 -15 0 -107 -91 -107
-105 0 -13 -61 -78 -67 -71 -6 6 14 44 48 87 16 20 29 44 29 52 0 9 24 27 58
42 72 35 91 51 85 76 -3 10 0 19 6 19 6 0 11 -4 11 -10 0 -5 7 -10 15 -10 8 0
15 5 15 10 0 6 -5 10 -11 10 -6 0 -9 9 -6 20 4 15 0 19 -17 17 -15 -1 -21 3
-20 16 1 9 -5 17 -13 17 -8 0 -12 -4 -8 -9 7 -13 -40 -7 -57 6 -7 6 -23 14
-34 17 -12 4 -24 16 -27 27 -3 11 -14 23 -25 25 -28 8 -112 151 -112 192 0 8
-8 24 -17 35 -17 20 -17 20 2 13 11 -4 43 -15 70 -23 28 -8 56 -20 63 -25 25
-21 22 0 -5 31 -18 21 -37 31 -55 31 -41 0 -35 18 27 85 69 76 82 115 65 210
-22 127 -31 157 -48 150 -8 -3 -18 -2 -21 3 -10 15 -89 24 -88 9 3 -38 -17
-85 -43 -100 -21 -13 -27 -22 -23 -38 4 -15 -4 -28 -31 -51 -20 -17 -35 -33
-32 -35 3 -3 21 -7 39 -8 34 -2 96 -35 66 -35 -8 0 -25 -14 -38 -31 -12 -16
-34 -34 -47 -39 -31 -12 -21 -34 12 -27 26 5 30 -3 12 -21 -18 -18 -45 -14
-51 7 -2 11 -19 27 -36 35 -28 15 -34 15 -60 2 -31 -17 -41 -13 -41 17 0 19
-1 19 -18 4 -10 -9 -28 -37 -41 -62 -27 -54 -36 -61 -51 -38 -9 15 -10 13 -8
-13 1 -17 -3 -39 -11 -47 -19 -23 -10 -51 18 -55 16 -3 31 5 47 23 20 23 29
27 58 22 22 -3 37 -1 40 6 7 18 36 -22 36 -50 0 -16 6 -23 20 -23 11 0 20 -4
20 -8 0 -10 -55 -52 -68 -52 -14 0 -71 -30 -77 -41 -4 -5 -19 -9 -35 -9 -16 0
-32 -4 -35 -10 -3 -6 -16 -10 -28 -11 -12 0 -40 -9 -62 -19 -30 -13 -36 -19
-24 -24 10 -4 39 3 68 18 82 39 323 84 348 64 7 -6 19 -6 31 1 15 8 23 7 30
-2 19 -23 25 -68 12 -93 -14 -26 -50 -33 -50 -10 0 12 -6 13 -28 5 -26 -9 -29
-15 -31 -59 -1 -27 -5 -60 -10 -72 -4 -13 -6 -28 -4 -34 2 -6 -8 -19 -22 -28
-14 -9 -25 -13 -25 -8 0 19 -89 71 -145 86 -48 12 -67 23 -95 56 -19 22 -41
40 -49 40 -23 0 -76 -65 -90 -109 -6 -23 -17 -41 -23 -41 -7 0 -6 -5 2 -15 17
-20 -3 -20 -60 0 -69 24 -58 9 21 -31 62 -31 85 -38 142 -39 54 -1 79 -8 129
-33 45 -24 74 -32 113 -32 44 0 54 -3 58 -20 3 -13 14 -20 29 -20 12 0 46 -7
73 -14 l50 -14 -85 -1 c-64 0 -96 4 -129 19 -53 24 -57 25 -40 3 31 -37 93
-73 126 -73 18 0 44 -7 58 -16 22 -15 23 -17 9 -50 -13 -30 -12 -34 1 -34 20
0 21 -68 1 -84 -8 -6 -23 -32 -34 -58 -24 -55 -18 -64 45 -74 36 -5 45 -3 68
20 15 15 65 51 113 81 83 53 122 69 106 43 -4 -7 6 -2 23 10 38 27 43 27 43 3
0 -24 -9 -30 -47 -33 -15 -1 -43 -12 -60 -23 -160 -99 -192 -121 -193 -130 0
-12 76 -35 113 -35 12 0 35 7 50 15 15 8 25 10 22 5 -4 -6 0 -10 9 -10 8 0 16
4 18 8 4 11 78 2 78 -9 0 -5 -15 -9 -32 -8 -49 1 -128 -12 -128 -22 0 -5 10
-14 23 -20 12 -7 27 -19 33 -27 8 -10 17 -13 30 -7 23 10 66 7 79 -6 12 -12
45 -12 45 0 0 5 -9 13 -20 16 -11 3 -20 11 -20 16 0 5 -17 7 -40 3 -25 -4 -40
-3 -40 4 0 14 18 19 86 26 43 5 53 4 37 -4 -13 -5 -23 -15 -23 -21 0 -11 16
-10 83 7 21 5 27 3 27 -10 0 -9 -3 -15 -7 -15 -28 5 -32 -3 -13 -23 20 -21 21
-22 49 -5 21 12 32 14 36 6 13 -21 -16 -33 -130 -53 -11 -2 -51 -11 -88 -20
-92 -22 -100 -21 -91 7 4 12 12 25 18 29 7 5 5 8 -6 8 -9 0 -20 -9 -23 -20 -4
-12 -25 -33 -48 -47 -23 -14 -44 -29 -47 -33 -3 -4 -28 -19 -57 -35 -29 -15
-76 -49 -105 -75 -29 -26 -67 -50 -83 -54 -17 -4 -37 -12 -46 -19 -19 -15 -35
-87 -19 -87 6 0 8 -4 5 -10 -3 -5 -17 -10 -30 -10 -32 0 -40 -16 -12 -24 21
-6 20 -7 -13 -29 -33 -21 -44 -22 -202 -20 -157 1 -168 0 -168 -17 0 -25 44
-34 101 -21 55 13 59 13 59 2 0 -5 -25 -17 -54 -25 -30 -9 -58 -21 -61 -26 -3
-6 -14 -10 -23 -10 -10 0 -23 -9 -30 -21 -10 -15 -20 -19 -38 -15 -13 4 -24 2
-24 -3 0 -5 -12 -11 -27 -13 -25 -3 -28 -7 -25 -33 2 -16 6 -32 8 -34 2 -2 47
15 99 38 116 51 199 67 232 46 12 -8 31 -15 43 -15 28 0 26 -34 -6 -112 -41
-100 -47 -110 -82 -146 -37 -36 -57 -36 -26 0 17 20 17 21 1 8 -15 -11 -20
-11 -27 -1 -13 22 -28 3 -27 -34 1 -32 4 -36 25 -33 31 4 47 -20 38 -56 -6
-25 -8 -26 -34 -12 -15 8 -52 16 -82 18 l-55 3 0 -31 c-1 -18 -6 -38 -12 -45
-8 -10 -8 -40 -2 -104 9 -89 10 -90 53 -132 25 -23 50 -58 57 -78 7 -19 16
-35 20 -35 4 0 9 -9 12 -20 3 -11 10 -20 16 -20 6 0 8 6 5 14 -3 7 3 16 13 20
15 6 15 8 3 16 -10 7 -11 10 -2 10 23 0 12 40 -18 67 -31 28 -60 76 -60 100 0
16 -24 43 -38 43 -5 0 -14 12 -21 26 l-12 27 43 -6 c53 -7 65 -1 70 38 1 17 8
30 14 30 29 0 106 -83 135 -145 17 -36 35 -74 40 -85 6 -12 11 -48 13 -80 3
-70 45 -155 76 -155 22 0 91 45 103 66 14 25 -1 29 -20 6 -28 -32 -59 -37 -67
-10 -4 15 0 27 11 35 15 12 15 13 -5 13 -12 0 -22 3 -22 6 0 9 41 44 52 44 16
0 29 51 17 66 -9 11 -8 14 1 14 9 0 10 3 1 14 -7 9 -9 29 -5 55 6 37 4 41 -20
52 -14 7 -26 19 -26 26 0 10 -6 12 -21 8 -21 -7 -21 -5 -17 49 4 49 2 59 -14
67 -38 20 -98 94 -104 128 -4 19 -3 50 2 70 8 31 13 36 36 33 19 -2 28 3 33
17 3 12 21 23 50 30 26 6 49 19 55 31 20 38 45 42 87 14 21 -14 40 -30 44 -35
3 -6 14 -12 24 -13 10 -1 19 -11 21 -20 4 -30 13 -46 25 -46 6 0 8 7 5 15 -3
9 1 18 9 21 8 4 15 10 15 16 0 5 -4 7 -9 3 -14 -8 -19 7 -10 35 7 25 7 25 8 2
1 -13 5 -21 10 -18 4 3 6 28 3 56 -6 62 11 67 27 8 8 -28 10 -89 7 -171 -2
-70 0 -129 4 -132 21 -13 70 -84 61 -89 -5 -4 -17 1 -25 10 -15 14 -16 14 -16
-3 0 -10 4 -24 9 -32 5 -7 4 -25 -2 -41 -6 -15 -7 -36 -3 -46 7 -17 9 -16 23
11 8 17 29 44 46 62 28 30 30 37 28 102 -1 58 -8 84 -39 148 -36 77 -37 80
-38 203 0 70 6 147 13 175 9 37 9 51 1 56 -9 6 -9 14 0 34 7 14 12 41 12 60 0
19 4 36 10 40 5 3 19 20 32 37 12 17 17 28 11 25 -7 -4 -37 -10 -68 -13 -30
-3 -76 -14 -101 -24 -48 -21 -74 -25 -74 -12 0 7 109 76 122 77 3 0 20 15 38
33 17 19 38 31 45 28 7 -2 15 4 18 16 5 18 11 20 52 16 54 -7 60 -11 50 -35
-10 -22 -8 -41 7 -70 l10 -21 45 19 c25 10 47 19 50 19 3 0 3 -22 -1 -50 -6
-42 -4 -50 9 -50 13 0 15 -7 9 -35 -5 -30 -2 -39 21 -61 18 -16 25 -32 22 -44
-3 -11 -1 -20 5 -20 6 0 7 -7 4 -16 -3 -9 3 -31 14 -49 26 -41 33 -97 31 -253
0 -99 2 -124 14 -128 8 -4 15 -15 15 -25 0 -10 4 -19 10 -19 15 0 7 -43 -10
-57 -13 -11 -12 -12 8 -13 15 0 22 -5 19 -12 -2 -7 -11 -12 -21 -10 -12 2 -16
-5 -16 -28 0 -20 5 -30 15 -30 8 0 15 5 15 12 0 6 3 9 6 6 9 -10 -15 -48 -29
-45 -7 1 -12 -11 -14 -31 -2 -47 -29 -127 -59 -173 -13 -21 -24 -45 -24 -52 0
-7 -9 -23 -20 -35 -11 -12 -20 -24 -20 -28 0 -3 -13 -23 -30 -44 -16 -21 -30
-41 -30 -44 0 -15 22 -3 50 28 53 58 94 51 54 -9 l-16 -25 37 0 c24 0 43 6 52
17 22 29 53 95 53 115 0 10 9 28 20 40 11 12 20 32 20 44 0 27 29 62 54 66 17
3 20 -3 19 -47 0 -78 -19 -128 -69 -184 l-46 -51 681 0 681 0 0 1111 0 1110
-22 -3 c-15 -2 -23 2 -23 12 0 8 10 16 23 18 17 3 22 10 22 33 0 16 -4 29 -8
29 -5 0 -9 14 -9 30 0 17 4 30 9 30 4 0 7 435 7 968 -1 532 -3 958 -6 947 -3
-11 -9 -24 -13 -29 -9 -9 -243 -11 -258 -2 -16 10 -52 -37 -42 -54 15 -23 12
-33 -9 -27 -12 3 -22 -1 -25 -10 -8 -21 -25 -7 -19 16 4 16 1 19 -15 14 -21
-5 -39 12 -22 22 5 3 10 13 10 21 0 12 -4 12 -20 4 -20 -11 -30 3 -10 15 6 4
4 17 -5 35 -20 39 -19 67 5 87 11 10 20 23 20 30 0 15 16 17 25 3 9 -14 25
-12 25 3 0 6 19 27 41 46 40 33 43 33 167 41 111 7 129 6 140 -8 10 -13 12 11
12 129 0 83 -4 138 -9 131 -7 -11 -12 -12 -29 -1 -17 10 -28 10 -60 0 -27 -9
-59 -11 -92 -7 -34 5 -57 3 -66 -5 -8 -6 -31 -12 -52 -13 l-37 -1 0 -44 0 -45
-66 -34 c-72 -38 -104 -82 -93 -126 3 -13 6 -56 7 -95 2 -63 1 -68 -10 -44 -6
16 -14 40 -17 54 -3 14 -20 45 -39 70 -18 24 -31 52 -29 62 2 10 -3 17 -12 17
-9 0 -16 -7 -16 -16 0 -11 -6 -14 -22 -8 -13 3 -25 8 -27 10 -9 8 -14 233 -6
251 4 10 9 28 11 40 1 13 10 33 18 45 9 12 16 39 16 58 0 28 8 44 33 68 40 38
51 40 45 8 -3 -15 0 -27 8 -30 8 -3 11 -12 8 -21 -8 -20 15 -20 30 0 7 11 35
18 82 22 65 5 72 8 80 32 l10 26 19 -22 c25 -30 35 -29 73 5 44 40 41 67 -13
124 -44 47 -45 47 -97 42 -29 -3 -77 -12 -106 -20 -29 -8 -58 -14 -65 -13 -25
3 -37 -2 -57 -23 -11 -12 -20 -18 -20 -12 1 18 61 75 72 68 6 -4 8 -3 4 4 -8
13 60 60 155 107 52 27 84 36 141 40 179 12 213 13 220 1 4 -6 8 24 8 67 l0
77 -177 -4 c-177 -4 -179 -4 -388 -58 -115 -30 -228 -64 -251 -76 -57 -29
-110 -92 -151 -178 -33 -70 -35 -79 -36 -189 -1 -73 -5 -114 -12 -112 -6 2
-10 54 -9 135 0 73 -1 132 -2 132 -2 0 -10 -12 -18 -27 -14 -26 -21 -19 -16
16 1 8 -4 25 -11 38 -10 19 -18 23 -37 18 -21 -5 -23 -3 -17 12 25 60 10 125
-33 141 -48 17 -112 29 -112 22 0 -5 16 -17 35 -29 19 -11 36 -26 36 -33 1 -7
3 -25 5 -40 2 -19 -2 -28 -11 -28 -7 0 -21 -3 -31 -7 -14 -5 -16 -2 -12 15 3
11 3 22 -1 24 -14 6 -51 80 -51 101 0 15 -13 30 -38 45 -80 49 -186 132 -178
139 2 2 23 -7 46 -22 36 -23 40 -23 31 -6 -6 10 -16 22 -23 24 -7 3 -2 6 12 6
58 2 156 -43 129 -60 -14 -8 -13 -8 35 -23 22 -7 25 15 9 57 l-15 37 -152 0
c-146 -1 -150 -1 -124 -18 48 -29 28 -45 -22 -17 -28 16 -108 19 -160 6 -19
-5 -50 -12 -68 -15 l-33 -6 28 25 28 24 -41 1 c-27 0 -46 -6 -58 -18 -9 -11
-42 -31 -74 -46 -31 -16 -70 -35 -87 -44 -98 -53 -241 -119 -248 -115 -10 6
37 43 57 43 11 0 14 9 12 35 -4 47 -12 53 -19 16 -5 -24 -10 -28 -27 -24 -11
3 -20 12 -20 19 0 8 -4 14 -8 14 -18 0 -95 -87 -112 -126 -22 -50 -37 -57 -70
-34 -41 28 -98 52 -109 46 -5 -4 -13 -1 -17 6 -4 7 -3 10 1 5 5 -4 14 7 20 25
9 28 8 37 -9 60 -16 23 -18 32 -8 53 16 35 16 63 0 47 -19 -19 -35 -14 -42 13
-6 22 -12 25 -51 25 l-44 0 16 -37 c8 -21 20 -44 25 -51 8 -9 7 -11 -3 -7 -8
3 -27 26 -41 50 -28 46 -45 54 -66 33 -9 -9 -12 -9 -12 0 0 9 -72 12 -297 11
-164 -1 -288 -4 -275 -7 38 -11 26 -27 -25 -33 -61 -9 -102 -25 -132 -52 l-24
-22 6 23 c5 22 3 23 -26 16 -18 -4 -39 -8 -47 -9 -8 -1 -42 -5 -75 -9 -33 -4
-89 -16 -124 -27 -36 -11 -73 -18 -83 -16 -9 3 -34 1 -55 -3 -21 -5 -39 -8
-41 -6 -8 8 59 66 91 80 37 15 51 14 95 -7 17 -8 35 -7 75 6 28 9 89 19 134
23 62 5 87 12 99 25 16 18 16 19 -19 19 -19 0 -37 -4 -39 -9 -1 -5 -22 -12
-45 -16 -35 -5 -43 -4 -43 9 0 14 -72 15 -691 16 -480 0 -696 -3 -705 -11 -9
-7 -18 -7 -33 0 -13 7 -162 11 -445 11 l-426 0 0 -2770z m1218 2730 c-26 -36
-37 -38 -31 -6 5 22 16 30 46 35 4 0 -2 -12 -15 -29z m828 15 c18 -13 18 -14
-4 -8 -12 3 -25 9 -28 14 -8 14 10 11 32 -6z m732 -45 c5 0 12 -7 16 -15 4
-12 17 -14 59 -11 30 3 62 8 73 11 12 4 9 1 -6 -9 -14 -8 -50 -18 -80 -22 -30
-3 -62 -10 -69 -14 -25 -13 -55 63 -34 84 4 4 13 0 19 -8 6 -9 16 -16 22 -16z
m1309 -54 c-9 -23 -37 -20 -37 3 0 21 20 33 34 20 5 -4 6 -15 3 -23z m-807
-28 c36 -64 37 -78 6 -107 l-24 -23 -4 24 c-2 16 -10 23 -25 23 -12 0 -33 11
-47 24 -29 28 -29 28 -26 -51 2 -65 -14 -79 -24 -20 -12 75 -8 87 44 136 27
25 54 46 59 46 6 0 24 -24 41 -52z m1008 11 c23 -23 42 -49 42 -59 0 -10 3
-33 7 -51 6 -31 5 -33 -10 -20 -21 17 -94 125 -102 151 -10 33 16 24 63 -21z
m-3159 -10 c19 -22 31 -42 28 -45 -9 -9 -22 2 -57 46 -41 52 -16 51 29 -1z
m3440 16 c48 -26 89 -61 80 -70 -3 -2 -21 8 -40 24 -19 15 -44 31 -56 35 -20
6 -53 36 -39 36 3 0 28 -11 55 -25z m-2209 -14 c0 -6 -4 -13 -10 -16 -5 -3
-10 1 -10 9 0 9 5 16 10 16 6 0 10 -4 10 -9z m30 -46 c0 -14 -4 -25 -10 -25
-5 0 -10 11 -10 25 0 14 5 25 10 25 6 0 10 -11 10 -25z m-1825 -30 l7 -40 -22
28 c-18 22 -20 30 -10 43 16 18 16 18 25 -31z m2002 15 c5 0 22 -13 38 -30 34
-36 43 -37 55 -7 8 20 9 19 9 -12 1 -26 4 -31 14 -23 7 6 30 13 52 16 22 2 48
8 58 11 13 6 17 2 17 -18 0 -14 -4 -29 -10 -32 -5 -3 -10 -15 -10 -27 0 -15 5
-19 20 -15 12 3 20 0 20 -8 0 -7 15 -18 32 -24 27 -10 35 -9 44 4 6 8 16 15
21 15 6 0 16 7 23 15 7 8 17 15 22 15 10 0 -10 -42 -26 -52 -23 -15 8 -22 85
-19 71 2 88 -1 137 -25 53 -26 55 -29 32 -35 -14 -4 -43 -8 -65 -9 -30 -1 -35
-3 -20 -9 17 -7 15 -10 -18 -21 -38 -14 -49 -36 -21 -47 8 -3 25 3 37 15 18
16 30 18 67 13 37 -5 45 -10 44 -27 0 -14 7 -21 24 -22 19 -2 22 2 17 18 -4
11 -2 20 4 20 6 0 11 -8 11 -18 0 -19 18 -42 32 -42 5 0 13 10 18 23 6 16 9
18 9 5 1 -10 13 -24 28 -31 25 -14 22 -15 -58 -19 -46 -3 -97 -11 -113 -17
l-29 -12 27 -28 c14 -15 23 -31 19 -36 -5 -4 -3 -5 4 -1 6 3 14 2 18 -4 3 -5
1 -10 -6 -10 -10 0 -10 -3 -1 -12 7 -7 12 -20 12 -30 0 -10 14 -44 31 -76 61
-115 142 -214 247 -301 74 -61 88 -87 96 -166 5 -58 5 -59 -5 -16 -11 47 -45
107 -73 130 -9 7 -16 9 -16 3 0 -5 7 -15 15 -22 8 -7 15 -23 15 -35 0 -25 47
-137 61 -146 14 -8 7 -161 -7 -166 -7 -2 -13 16 -16 50 -3 39 -14 69 -36 103
-35 55 -137 137 -227 182 -73 36 -157 109 -178 154 -39 85 -47 109 -67 198
-33 146 -51 159 -24 18 8 -41 -10 -34 -31 12 -10 22 -22 40 -27 40 -5 0 -6 -5
-2 -11 4 -7 8 -28 10 -48 5 -59 37 -161 51 -161 8 0 13 -13 13 -34 0 -37 29
-109 58 -147 48 -61 62 -105 62 -196 -1 -95 -15 -260 -26 -307 -5 -22 -4 -27
6 -21 10 6 11 1 6 -21 -10 -40 -25 -56 -47 -49 -15 5 -19 1 -19 -19 0 -17 -6
-26 -15 -26 -13 0 -13 -3 -3 -20 18 -29 -5 -107 -44 -147 -29 -30 -36 -32 -80
-28 -29 3 -48 1 -48 -5 0 -5 -10 -10 -23 -10 -13 0 -34 -11 -46 -24 -13 -14
-29 -22 -37 -19 -8 3 -14 0 -14 -6 0 -16 -65 -14 -79 3 -12 15 -46 11 -70 -8
-11 -8 -15 -8 -18 2 -3 6 -11 12 -19 12 -8 0 -24 10 -36 22 -12 12 -23 17 -25
12 -2 -6 -17 -8 -33 -6 -23 3 -30 9 -30 27 0 18 -5 23 -25 21 -14 0 -25 -4
-25 -8 0 -15 -29 -8 -38 8 -8 15 -12 14 -31 -5 l-22 -22 -43 36 c-24 20 -47
47 -50 61 -7 26 8 64 24 64 6 0 10 9 10 20 0 12 -5 17 -14 14 -9 -3 -16 4 -20
21 -8 30 -34 44 -46 24 -14 -21 -20 -7 -41 92 -10 52 -30 130 -44 175 -30 95
-31 159 -9 316 10 72 14 144 10 198 -8 133 5 199 55 273 23 34 49 67 58 74 20
15 127 56 203 77 35 10 63 25 73 38 25 36 19 47 -20 41 -23 -4 -43 0 -59 11
-31 20 -36 20 -36 0 0 -13 -6 -15 -27 -10 -31 8 -84 14 -152 18 -35 2 -46 -1
-55 -17 -6 -11 -18 -25 -26 -32 -13 -11 -12 -12 8 -13 12 0 22 -4 22 -10 0 -5
-15 -10 -33 -10 -44 0 -72 -22 -101 -80 -21 -42 -23 -50 -9 -50 15 0 15 -2 0
-17 -8 -10 -19 -30 -22 -46 -4 -15 -11 -29 -15 -32 -4 -3 -15 -40 -24 -82 -34
-157 -41 -185 -51 -181 -5 2 -9 7 -7 12 8 23 23 116 28 171 3 32 10 67 15 76
5 10 9 27 9 37 0 11 14 46 30 77 17 31 30 64 30 74 0 9 33 49 74 89 74 73 110
92 171 92 17 0 35 4 41 9 5 5 25 11 44 13 l35 3 -40 23 -40 23 45 -5 c25 -3
56 -8 70 -12 l25 -8 -18 28 c-23 35 -17 41 24 27 18 -6 44 -11 58 -11 15 0 32
-5 39 -12 21 -21 25 1 7 39 -10 21 -20 63 -22 93 -4 49 -2 53 10 38 8 -10 18
-18 24 -18z m-1617 10 c0 -5 -2 -10 -4 -10 -3 0 -8 5 -11 10 -3 6 -1 10 4 10
6 0 11 -4 11 -10z m2108 -18 c2 -12 -1 -22 -7 -22 -6 0 -11 4 -11 9 0 5 -3 17
-7 27 -4 12 -2 15 8 12 8 -2 15 -14 17 -26z m-1098 14 c0 -2 -7 -7 -16 -10 -8
-3 -12 -2 -9 4 6 10 25 14 25 6z m1947 -13 c7 -10 19 -29 25 -43 l12 -25 4 31
3 32 46 -49 c25 -27 54 -49 64 -49 26 0 33 -17 11 -29 -17 -9 -72 -102 -72
-121 0 -4 9 -6 20 -3 31 8 270 -8 270 -18 0 -5 -5 -9 -11 -9 -6 0 -65 -27
-132 -59 -70 -34 -176 -75 -247 -95 -162 -47 -176 -53 -195 -83 -9 -14 -19
-22 -22 -20 -3 3 2 16 11 29 9 12 16 32 16 43 0 11 16 44 35 74 19 30 32 58
29 63 -3 4 0 8 5 8 6 0 11 5 11 11 0 6 -7 8 -16 5 -10 -4 -25 3 -40 19 -15 16
-29 23 -40 18 -14 -5 -16 -2 -12 22 9 45 -19 94 -37 65 -3 -5 -1 -10 4 -10 14
0 11 -77 -4 -115 -7 -17 -12 -65 -11 -107 1 -80 -7 -86 -28 -24 -12 34 -14 35
-27 20 -8 -9 -14 -38 -14 -64 0 -35 -3 -46 -13 -42 -10 3 -12 15 -7 38 7 40
-11 47 -21 9 -3 -14 -10 -25 -15 -25 -5 0 -9 2 -9 4 0 7 25 52 49 86 14 19 21
32 16 28 -16 -15 -35 15 -35 56 0 46 -13 66 -44 66 -15 0 -11 6 17 28 20 15
40 37 43 49 7 27 39 57 53 49 5 -3 19 16 32 44 18 39 28 50 46 50 13 0 46 12
74 26 59 29 75 27 84 -15 8 -36 29 -55 51 -47 16 6 16 34 -1 79 -4 9 -4 17 0
17 4 0 14 -8 22 -17z m536 -52 c10 -16 27 -31 40 -33 12 -2 21 -9 20 -15 -1
-6 18 -30 42 -52 50 -46 53 -56 25 -79 -10 -10 -22 -29 -26 -44 -6 -27 -4 -28
32 -29 33 -1 29 -3 -21 -11 -33 -5 -69 -13 -80 -17 -54 -24 -65 -22 -45 9 7
11 4 19 -10 30 -21 17 -39 90 -21 90 6 0 11 -7 11 -15 0 -8 8 -23 19 -34 10
-10 20 -24 23 -32 3 -10 11 -7 28 9 13 12 32 24 42 28 34 10 17 51 -56 135
-52 59 -68 89 -48 89 4 0 15 -13 25 -29z m-1033 -31 c0 -9 5 -21 11 -27 9 -9
8 -16 -5 -28 -9 -9 -16 -13 -17 -8 0 4 -4 -1 -9 -12 -6 -14 -9 4 -9 55 0 68 1
73 14 56 8 -11 15 -27 15 -36z m-3005 1 c7 -12 -2 -17 -45 -25 l-35 -7 24 21
c25 21 46 26 56 11z m279 -7 c3 -8 2 -12 -4 -9 -6 3 -10 10 -10 16 0 14 7 11
14 -7z m1441 -4 c7 -11 -42 -37 -51 -27 -9 9 15 37 32 37 7 0 16 -4 19 -10z
m2203 -37 c-6 -16 -20 -37 -31 -48 -19 -20 -19 -20 -12 15 8 40 22 60 41 60
11 0 11 -5 2 -27z m-3336 -1 c7 -11 20 -21 28 -25 12 -4 11 -6 -3 -6 -26 -1
-57 17 -57 34 0 21 16 19 32 -3z m-234 -18 c2 -22 0 -24 -12 -14 -8 6 -12 18
-9 26 8 22 18 16 21 -12z m79 4 c-3 -8 -6 -5 -6 6 -1 11 2 17 5 13 3 -3 4 -12
1 -19z m2036 15 c-7 -2 -19 -2 -25 0 -7 3 -2 5 12 5 14 0 19 -2 13 -5z m687
-3 c0 -5 -2 -10 -4 -10 -3 0 -8 5 -11 10 -3 6 -1 10 4 10 6 0 11 -4 11 -10z
m-2950 -75 c0 -31 -15 -64 -24 -54 -3 3 -3 29 1 58 6 55 23 52 23 -4z m788 27
c6 -18 -15 -14 -22 4 -4 10 -1 14 6 12 6 -2 14 -10 16 -16z m-68 -63 c0 -10
-71 -89 -81 -89 -4 0 -3 14 2 30 6 17 16 30 21 30 7 0 6 5 -1 13 -6 8 -9 16
-7 18 8 8 66 6 66 -2z m4275 -19 c19 -8 19 -9 -3 -9 -13 -1 -35 -7 -50 -15
-15 -7 -38 -17 -51 -21 -38 -12 -15 14 33 36 46 21 44 21 71 9z m-2111 -35
c-4 -8 -10 -12 -15 -9 -11 6 -2 24 11 24 5 0 7 -7 4 -15z m-3448 -22 c-7 -7
-26 7 -26 19 0 6 6 6 15 -2 9 -7 13 -15 11 -17z m1134 -23 c0 -5 -4 -10 -10
-10 -5 0 -10 5 -10 10 0 6 5 10 10 10 6 0 10 -4 10 -10z m3330 -70 c0 -11 -4
-20 -10 -20 -5 0 -10 9 -10 20 0 11 5 20 10 20 6 0 10 -9 10 -20z m-3387 -10
c3 -11 1 -23 -4 -26 -5 -3 -9 6 -9 20 0 31 6 34 13 6z m3701 -35 c13 -14 31
-25 42 -25 25 0 64 -39 64 -66 0 -12 7 -30 16 -39 21 -21 18 -22 -38 -17 -29
2 -49 9 -52 19 -4 11 -2 13 9 10 8 -4 17 -2 20 2 6 11 -24 23 -37 15 -6 -4 -8
1 -4 14 6 16 3 19 -12 15 -14 -3 -21 4 -31 34 -7 21 -15 44 -17 51 -9 21 16
13 40 -13z m-1198 -85 c8 0 14 -4 14 -10 0 -15 -22 -12 -45 7 -18 14 -18 15
-2 9 10 -3 25 -6 33 -6z m-2170 -41 c6 -14 15 -36 19 -50 l7 -24 -23 21 c-13
12 -33 26 -44 32 -11 6 -14 12 -7 12 6 0 12 9 12 20 0 27 22 21 36 -11z m-93
4 c15 -3 27 -10 27 -15 0 -6 -7 -8 -15 -4 -10 3 -17 -3 -21 -20 -8 -30 -30
-26 -26 4 2 16 -4 25 -22 32 -35 13 -33 24 2 16 15 -4 39 -10 55 -13z m2466
-28 c36 -24 84 -62 105 -84 l39 -40 -39 6 c-21 3 -44 12 -51 20 -6 8 -29 21
-50 28 -35 12 -38 16 -35 46 3 30 2 32 -25 26 -24 -5 -28 -2 -29 19 -1 13 3
24 9 24 6 0 40 -20 76 -45z m-280 -28 c44 -42 62 -67 47 -67 -12 0 -94 76
-111 103 -26 41 -4 28 64 -36z m111 17 c0 -8 -4 -12 -10 -9 -5 3 -10 13 -10
21 0 8 5 12 10 9 6 -3 10 -13 10 -21z m-3228 4 c-9 -9 -15 -9 -24 0 -9 9 -7
12 12 12 19 0 21 -3 12 -12z m1257 0 c20 -7 38 -13 40 -15 12 -8 -25 -64 -45
-69 -13 -3 -24 -10 -24 -16 0 -12 -60 -5 -63 7 -1 6 12 11 28 13 36 3 65 39
40 48 -8 4 -22 4 -30 0 -8 -3 -15 -1 -15 3 0 5 -3 16 -6 25 -8 20 24 21 75 4z
m351 -73 c13 -31 22 -147 10 -140 -6 3 -10 -4 -11 -17 0 -22 -1 -22 -9 -3 -5
11 -9 34 -10 50 -1 29 -1 29 -15 11 -14 -19 -15 -18 -15 10 0 30 16 108 27
134 5 12 7 11 10 -5 2 -11 8 -29 13 -40z m2910 40 c0 -10 -10 -15 -30 -15 -20
0 -30 5 -30 15 0 10 10 15 30 15 20 0 30 -5 30 -15z m-3626 -32 c4 -9 1 -20
-6 -25 -20 -12 -28 -10 -28 10 0 33 23 43 34 15z m-404 -18 c0 -14 -4 -25 -10
-25 -5 0 -10 11 -10 25 0 14 5 25 10 25 6 0 10 -11 10 -25z m2940 -4 c0 -4
-11 -6 -25 -3 -14 2 -25 6 -25 8 0 2 11 4 25 4 14 0 25 -4 25 -9z m-1957 -21
c-3 -11 -7 -20 -9 -20 -2 0 -4 9 -4 20 0 11 4 20 9 20 5 0 7 -9 4 -20z m3025
-7 c-8 -10 -18 -26 -21 -35 -4 -10 -13 -18 -21 -18 -13 0 -13 4 0 30 15 28 44
53 53 44 2 -2 -3 -12 -11 -21z m-4324 -25 c-14 -46 -21 -153 -10 -170 8 -14 5
-23 -18 -47 -22 -23 -27 -36 -22 -55 5 -20 2 -25 -15 -28 -22 -3 -107 -94 -97
-103 5 -5 105 33 153 59 31 16 75 22 75 8 0 -4 -20 -18 -44 -30 -59 -32 -158
-137 -179 -189 -20 -50 -40 -149 -58 -283 -7 -57 -22 -113 -36 -141 -13 -26
-23 -52 -23 -57 0 -6 -8 -18 -17 -28 -10 -9 -23 -33 -29 -53 l-12 -36 -1 30
c0 17 4 48 8 70 15 66 17 120 3 118 -27 -6 -25 87 5 196 4 17 3 22 -5 17 -14
-8 -52 -133 -52 -169 0 -22 -16 -46 -24 -36 -7 9 24 180 37 206 25 49 29 80 4
33 -14 -25 -30 -70 -37 -100 -14 -63 -51 -135 -60 -120 -4 6 -14 2 -26 -11
-13 -15 -19 -36 -19 -72 0 -31 -5 -52 -12 -54 -7 -3 -13 -11 -13 -18 0 -23
-16 -25 -18 -2 -3 38 -2 81 4 100 3 9 1 17 -4 17 -5 0 -12 -19 -16 -42 -5 -31
-10 -38 -18 -30 -9 9 -7 29 5 81 16 63 22 133 10 104 -11 -30 -21 -10 -11 25
25 96 136 237 271 346 32 26 47 46 47 62 0 12 11 44 25 70 45 84 21 69 -44
-27 l-63 -94 -57 -5 c-45 -4 -56 -8 -55 -22 2 -22 -12 -24 -20 -3 -4 12 -16
14 -61 9 l-55 -7 0 37 c0 41 1 42 55 16 56 -27 68 -26 62 6 -3 18 2 33 18 50
27 30 34 23 28 -25 -6 -46 4 -54 46 -38 24 9 30 16 25 30 -4 12 -2 17 4 13 11
-7 61 46 99 107 14 23 51 69 81 102 52 58 112 137 112 149 0 8 -43 -16 -51
-28 -4 -4 -9 -3 -13 3 -4 6 12 20 36 32 24 12 47 28 51 35 4 8 15 14 23 14 11
0 13 -6 8 -22z m890 -31 c-7 -20 -34 -23 -34 -4 0 19 22 39 32 29 5 -5 6 -16
2 -25z m2826 18 c0 -16 -27 -32 -37 -21 -7 7 16 36 28 36 5 0 9 -7 9 -15z
m-2798 -67 c-15 -15 -24 -6 -16 16 5 12 10 14 17 7 8 -8 8 -14 -1 -23z m-589
2 c4 -3 -16 -12 -44 -18 -60 -14 -69 -10 -44 17 13 15 25 19 49 14 17 -3 34
-9 39 -13z m3944 -52 c-2 -7 -14 -12 -26 -11 -18 2 -26 -6 -42 -43 -24 -53
-18 -71 8 -25 19 33 33 40 33 16 0 -18 20 -20 21 -2 0 10 2 10 6 0 2 -7 12
-13 21 -13 23 0 25 -49 5 -72 -10 -11 -12 -18 -5 -18 7 0 12 -4 12 -10 0 -5
-5 -9 -11 -7 -7 1 -16 -13 -21 -30 -5 -18 -12 -33 -17 -33 -5 0 -12 -15 -16
-32 l-7 -33 -10 43 c-10 46 -4 67 12 42 7 -11 10 -3 10 28 0 41 -1 42 -32 41
-24 -1 -27 -3 -10 -6 12 -2 22 -8 22 -12 0 -13 -24 -31 -42 -31 -19 0 -25 -26
-8 -32 13 -4 17 -42 5 -46 -5 -2 -14 12 -20 31 -5 19 -17 42 -25 52 -8 9 -15
26 -17 37 -2 15 1 18 17 13 16 -5 20 -2 20 18 0 25 12 57 43 115 14 25 24 32
48 32 20 0 29 -4 26 -12z m-4537 -2 c0 -3 -4 -8 -10 -11 -5 -3 -10 -1 -10 4 0
6 5 11 10 11 6 0 10 -2 10 -4z m-30 -20 c0 -1 -11 -15 -25 -30 -17 -18 -25
-22 -25 -12 0 8 10 22 22 30 23 16 28 19 28 12z m3842 -48 c-15 -15 -19 -11
-27 27 l-7 30 23 -22 c18 -18 21 -25 11 -35z m911 -17 c-4 -26 -9 -39 -15 -33
-6 6 -6 30 -2 57 4 32 9 43 15 33 4 -7 5 -33 2 -57z m-4742 19 c21 -12 26 -40
6 -40 -17 0 -37 20 -37 37 0 16 5 16 31 3z m3803 -66 c16 -23 17 -28 3 -41
-21 -22 -37 -8 -37 33 0 40 8 42 34 8z m-3474 -5 c0 -5 -7 -9 -15 -9 -9 0 -12
6 -9 15 6 15 24 11 24 -6z m3215 0 c-10 -15 -25 -10 -19 6 4 8 10 12 15 9 5
-3 7 -10 4 -15z m-2992 -50 l32 -19 -45 1 c-25 0 -63 6 -85 14 -34 11 -37 13
-15 16 14 1 33 2 43 1 11 -1 17 6 17 21 1 20 1 21 11 4 6 -10 25 -27 42 -38z
m3084 21 c36 -17 64 -32 61 -35 -7 -7 -138 48 -138 58 0 11 5 9 77 -23z
m-3759 8 c-3 -7 -10 -13 -16 -12 -57 5 -59 5 -32 14 38 12 52 11 48 -2z m4522
-71 c0 -5 -4 -5 -10 -2 -5 3 -10 14 -10 23 0 15 2 15 10 2 5 -8 10 -19 10 -23z
m-3718 -7 c53 -23 187 -136 199 -166 5 -14 18 -28 29 -31 12 -3 27 -17 35 -32
l14 -26 10 25 c9 22 10 19 10 -23 1 -65 -24 -117 -55 -117 -13 0 -24 5 -24 10
0 6 -5 10 -11 10 -6 0 -9 -7 -6 -15 4 -8 2 -17 -3 -20 -6 -4 -10 -15 -10 -27
0 -14 -5 -18 -15 -14 -20 7 -19 -7 4 -52 15 -32 51 -134 117 -342 36 -114 55
-214 60 -330 6 -119 5 -129 -20 -205 -48 -139 -126 -265 -165 -265 -9 0 -45
-9 -79 -20 -70 -22 -181 -27 -214 -9 -27 14 -35 4 -15 -19 10 -10 17 -26 17
-35 0 -13 -11 -15 -64 -12 l-64 3 21 -37 c11 -20 22 -38 23 -40 2 -2 41 -6 86
-10 l83 -6 10 -32 c10 -36 16 -39 46 -23 29 16 35 -12 15 -74 -9 -29 -16 -68
-16 -87 0 -19 -6 -54 -14 -79 l-13 -45 -69 -3 c-119 -6 -297 31 -335 69 -11
11 -19 33 -19 52 0 21 -13 52 -36 87 -26 40 -38 72 -44 115 -12 90 -22 261
-16 254 4 -3 13 -41 21 -83 18 -93 29 -115 55 -113 23 1 23 2 10 28 -13 23 -8
24 32 3 29 -15 31 -15 23 2 -17 43 -17 55 0 68 13 9 15 15 7 20 -20 12 -13 27
10 24 32 -5 31 13 -3 52 -91 103 -99 117 -123 230 -3 13 5 54 18 90 29 79 40
142 31 171 -6 19 -11 14 -41 -37 -19 -33 -41 -75 -50 -94 -9 -19 -24 -44 -34
-55 -10 -11 -29 -42 -43 -70 -25 -49 -26 -49 -27 -19 0 29 18 92 39 139 94
202 102 285 56 615 -30 218 -30 209 1 275 15 33 31 62 35 65 3 3 14 22 24 44
24 50 79 103 117 111 28 7 30 10 25 41 -4 25 -2 34 8 34 7 0 22 3 32 6 17 5
16 4 -1 -10 -27 -22 -17 -27 60 -34 77 -6 82 9 9 27 -59 15 -58 24 2 15 30 -4
57 -17 77 -35 17 -16 47 -42 66 -58 32 -27 33 -29 10 -24 -25 6 -25 6 -6 -15
24 -28 21 -27 -49 3 -32 15 -85 28 -119 31 -53 4 -69 1 -107 -20 -24 -14 -52
-39 -62 -55 -21 -35 -18 -37 25 -15 35 18 109 12 128 -11 10 -12 4 -13 -37 -9
-34 4 -57 1 -78 -10 -16 -9 -38 -16 -47 -16 -27 0 -58 -48 -58 -91 0 -37 20
-65 28 -40 15 46 146 121 210 121 12 0 21 5 19 12 -4 22 87 57 161 60 38 2 77
10 86 17 18 15 22 51 6 51 -5 0 -17 15 -25 33 -24 51 -40 76 -66 103 l-24 26
30 -8 c17 -4 47 -15 67 -24z m2986 -10 c6 0 12 -9 12 -20 0 -23 -38 -28 -58
-8 -21 21 -15 41 11 34 12 -3 28 -6 35 -6z m-3057 -46 c21 -24 22 -26 3 -16
-25 13 -50 42 -37 42 5 0 20 -12 34 -26z m2939 22 c0 -11 -19 -15 -25 -6 -3 5
1 10 9 10 9 0 16 -2 16 -4z m-92 -44 c3 -18 8 -22 25 -16 30 9 29 9 55 0 33
-11 23 -36 -19 -50 -21 -7 -49 -23 -64 -34 -15 -12 -34 -22 -41 -22 -19 0 -29
-21 -13 -31 10 -6 11 -15 4 -35 -12 -34 -30 -29 -31 9 0 15 -10 37 -22 49
l-21 21 26 46 c51 89 94 115 101 63z m1249 -72 c3 -62 1 -68 -18 -73 -21 -6
-21 -4 -15 58 12 117 29 125 33 15z m-4457 54 c0 -8 -4 -12 -10 -9 -5 3 -10
10 -10 16 0 5 5 9 10 9 6 0 10 -7 10 -16z m660 -19 c13 -14 20 -28 17 -32 -8
-7 -57 35 -57 49 0 15 16 8 40 -17z m2680 15 c0 -5 -4 -10 -10 -10 -5 0 -10 5
-10 10 0 6 5 10 10 10 6 0 10 -4 10 -10z m-639 -89 c-8 -14 -8 -21 -1 -21 15
0 12 -37 -6 -71 -23 -46 -39 -31 -39 37 -1 44 4 63 18 77 24 24 44 9 28 -22z
m-1862 -34 c33 -49 47 -87 32 -87 -6 0 -11 6 -11 13 0 6 -16 38 -35 70 -40 66
-30 68 14 4z m2245 -4 c7 -7 -52 -73 -66 -73 -11 0 3 32 25 58 22 23 29 26 41
15z m-1610 -36 c11 -12 33 -31 48 -43 26 -20 64 -117 52 -135 -25 -41 -86 44
-131 184 -7 24 6 21 31 -6z m-1366 -4 c-10 -2 -26 -2 -35 0 -10 3 -2 5 17 5
19 0 27 -2 18 -5z m3984 -58 c0 -5 -5 -11 -11 -13 -6 -2 -11 4 -11 13 0 9 5
15 11 13 6 -2 11 -8 11 -13z m397 -97 c0 -55 -2 -59 -11 -35 -9 25 -4 97 7 97
3 0 5 -28 4 -62z m-3556 9 c-7 -11 -23 12 -23 33 1 12 4 11 15 -4 8 -10 12
-23 8 -29z m171 7 c3 -8 2 -12 -4 -9 -6 3 -10 10 -10 16 0 14 7 11 14 -7z
m1576 -9 c0 -14 -4 -25 -10 -25 -5 0 -10 11 -10 25 0 14 5 25 10 25 6 0 10
-11 10 -25z m-1340 -77 c0 -26 -17 -22 -23 5 -2 12 -8 31 -12 42 -5 16 -3 15
14 -5 11 -14 21 -33 21 -42z m1780 7 c0 -34 -12 -46 -25 -24 -9 14 3 59 15 59
6 0 10 -16 10 -35z m-2284 -31 c6 -42 4 -48 -26 -79 -31 -32 -34 -33 -46 -17
-17 21 -18 40 -2 24 16 -16 28 -15 28 3 0 31 22 115 30 115 5 0 12 -21 16 -46z
m732 -24 c1 -22 -3 -40 -8 -40 -6 0 -10 18 -10 39 0 22 -3 48 -6 58 -5 17 -5
17 9 1 7 -10 14 -35 15 -58z m-314 -21 c2 -51 2 -52 -11 -23 -6 16 -12 35 -13
43 0 7 -6 11 -14 8 -15 -6 -33 29 -22 40 3 4 6 1 6 -5 0 -7 5 -12 10 -12 6 0
10 8 10 17 0 16 1 16 16 1 11 -11 17 -36 18 -69z m-483 -2 c-17 -17 -25 21
-10 51 l13 27 4 -34 c2 -18 -1 -38 -7 -44z m3499 59 c0 -3 -4 -8 -10 -11 -5
-3 -10 -1 -10 4 0 6 5 11 10 11 6 0 10 -2 10 -4z m-1324 -32 c-4 -9 -9 -15
-11 -12 -3 3 -3 13 1 22 4 9 9 15 11 12 3 -3 3 -13 -1 -22z m2454 -141 l0
-148 -46 -29 c-25 -16 -69 -49 -97 -73 -28 -23 -56 -43 -61 -43 -6 0 -36 20
-66 45 l-55 45 3 63 c4 75 21 100 48 68 10 -11 28 -21 39 -21 18 1 19 1 3 11
-34 20 -17 29 53 29 44 0 68 4 64 10 -3 6 -25 10 -48 10 l-42 1 32 27 c37 32
50 67 32 88 -19 23 1 35 67 40 33 3 61 9 62 14 10 27 12 -2 12 -137z m-2744
80 c-8 -15 -15 -25 -16 -21 0 12 23 58 27 54 3 -2 -2 -17 -11 -33z m-1089 -16
c-3 -7 1 -21 9 -32 8 -10 14 -30 14 -43 0 -13 5 -32 11 -44 15 -29 6 -31 -25
-7 -26 21 -56 77 -56 107 0 13 3 12 15 -4 14 -19 14 -19 15 2 0 19 8 34 18 34
2 0 2 -6 -1 -13z m-737 -47 c0 -5 -4 -10 -10 -10 -5 0 -10 5 -10 10 0 6 5 10
10 10 6 0 10 -4 10 -10z m2021 -32 c-26 -27 -28 -16 -3 17 9 13 18 19 20 14 2
-4 -6 -18 -17 -31z m-2001 -3 c-16 -19 -40 -20 -40 -1 0 8 10 16 23 18 29 5
32 2 17 -17z m-1233 -42 c-3 -10 -5 -2 -5 17 0 19 2 27 5 18 2 -10 2 -26 0
-35z m2223 27 c11 -7 7 -10 -18 -10 -20 0 -31 4 -27 10 8 13 26 13 45 0z m45
-20 c-3 -5 -10 -10 -16 -10 -5 0 -9 5 -9 10 0 6 7 10 16 10 8 0 12 -4 9 -10z
m-2068 -32 c-3 -7 -5 -2 -5 12 0 14 2 19 5 13 2 -7 2 -19 0 -25z m1093 22 c0
-5 -4 -10 -10 -10 -5 0 -10 5 -10 10 0 6 5 10 10 10 6 0 10 -4 10 -10z m140
-55 c0 -14 -4 -25 -9 -25 -12 0 -19 21 -13 38 8 21 22 13 22 -13z m1821 -29
c7 -14 9 -40 5 -60 -5 -28 -16 -41 -50 -61 -23 -14 -51 -25 -60 -25 -12 0 -16
-5 -12 -15 8 -22 -21 -19 -34 4 -16 31 -12 41 18 41 l27 0 -30 25 c-16 13 -41
25 -55 25 -18 0 -21 3 -11 9 10 7 11 13 1 31 -19 35 -6 33 40 -5 45 -37 74
-49 111 -43 30 4 36 38 13 72 -16 25 -16 26 5 26 13 0 26 -10 32 -24z m1857
-37 c2 -9 -4 -19 -11 -22 -10 -4 -17 3 -20 19 -3 19 -1 24 12 22 9 -2 17 -10
19 -19z m-2043 -99 c3 -5 2 -10 -4 -10 -5 0 -13 5 -16 10 -3 6 -2 10 4 10 5 0
13 -4 16 -10z m253 -95 l-21 -20 8 20 c4 11 10 40 13 65 l6 45 7 -45 c6 -38 3
-48 -13 -65z m102 63 c0 -7 -53 -38 -64 -38 -3 0 -4 6 -2 13 3 6 7 24 10 40 6
27 7 27 31 10 13 -10 25 -21 25 -25z m1929 -153 c0 -23 -2 -26 -9 -15 -5 8 -9
33 -9 55 1 35 2 37 9 15 4 -14 8 -38 9 -55z m-1325 9 c21 -54 -13 -94 -91
-109 -50 -9 -68 8 -46 46 17 28 28 33 66 30 9 -1 17 4 17 11 0 33 43 50 54 22z
m-4103 -169 c-12 -33 -19 -49 -16 -35 2 14 7 53 10 85 10 95 19 119 23 60 2
-31 -5 -72 -17 -110z m299 -50 c0 -8 -4 -15 -10 -15 -5 0 -7 7 -4 15 4 8 8 15
10 15 2 0 4 -7 4 -15z m-270 -7 c0 -7 -5 -20 -10 -28 -8 -12 -10 -9 -10 13 0
15 5 27 10 27 6 0 10 -6 10 -12z m34 -103 c7 -19 1 -52 -32 -175 -31 -119 -41
-185 -34 -229 5 -31 6 -32 13 -13 16 42 27 22 33 -55 19 -250 85 -192 86 74 0
75 4 134 10 138 6 4 9 -24 9 -73 0 -44 2 -99 6 -123 9 -63 -9 -161 -39 -206
-13 -21 -28 -50 -31 -65 -8 -31 -30 -38 -32 -10 -2 42 -28 142 -49 195 -39 94
-48 180 -31 284 9 48 18 112 22 141 4 28 11 52 16 52 5 0 9 7 9 15 0 19 21 65
31 65 4 0 9 -7 13 -15z m4906 10 c0 -2 -10 -10 -22 -16 -21 -11 -22 -11 -9 4
13 16 31 23 31 12z m-5013 -47 c-3 -8 -6 -5 -6 6 -1 11 2 17 5 13 3 -3 4 -12
1 -19z m4963 18 c0 -3 -14 -11 -30 -20 -17 -8 -28 -10 -24 -5 3 6 16 14 28 19
26 11 26 11 26 6z m-4600 -370 c0 -23 5 -68 11 -100 15 -83 8 -100 -19 -48
-29 56 -38 120 -22 166 15 46 30 37 30 -18z m-70 -86 c0 -21 4 -28 14 -24 10
4 15 -13 21 -73 5 -43 7 -86 6 -96 -3 -23 24 -104 61 -186 17 -36 27 -72 24
-84 -3 -11 -1 -28 4 -37 5 -9 10 -37 12 -62 3 -39 6 -45 19 -37 19 10 29 3 29
-22 0 -9 5 -19 10 -21 6 -2 -4 -31 -23 -68 l-35 -64 27 -47 c27 -49 24 -73 -6
-47 -37 31 -46 31 -24 -1 20 -27 21 -35 10 -42 -8 -5 -17 -9 -20 -9 -16 0
-161 190 -173 228 -9 27 5 28 29 2 10 -11 22 -20 28 -20 13 0 0 62 -25 118
-20 44 -33 102 -23 102 2 0 16 -25 30 -55 15 -30 30 -57 36 -60 16 -11 10 33
-8 51 -12 12 -14 19 -6 21 17 6 5 59 -21 100 -23 36 -36 42 -36 17 0 -8 -4
-12 -10 -9 -5 3 -10 18 -10 33 0 15 -7 47 -15 70 -21 59 -32 171 -16 156 7 -6
19 -36 27 -66 8 -31 21 -69 29 -84 13 -26 15 -27 15 -7 0 12 4 24 8 27 5 3 3
45 -4 93 -20 137 -16 252 7 237 5 -3 9 -18 9 -34z m705 -40 c-4 -12 -9 -19
-12 -17 -3 3 -2 15 2 27 4 12 9 19 12 17 3 -3 2 -15 -2 -27z m3013 -48 c6 -18
-15 -14 -22 4 -4 10 -1 14 6 12 6 -2 14 -10 16 -16z m-2938 -142 c-17 -22 -44
-62 -59 -88 -67 -118 -82 -135 -77 -89 4 35 24 65 95 148 69 80 97 100 41 29z
m-69 -18 c-10 -19 -51 -58 -51 -49 0 16 43 76 51 71 5 -3 5 -12 0 -22z m-835
-94 c29 -31 29 -31 2 -12 -15 10 -29 25 -32 32 -8 18 -2 15 30 -20z m42 -93
c1 -24 -5 -60 -13 -79 -19 -46 -19 -147 0 -194 9 -20 43 -69 76 -109 32 -40
54 -73 48 -73 -20 0 -95 58 -130 102 -59 72 -72 144 -48 271 22 120 66 173 67
82z m4045 -60 c-19 -25 -69 -49 -84 -39 -16 9 0 22 21 17 14 -4 23 2 31 21 7
15 20 26 31 26 18 0 18 -1 1 -25z m-3164 -35 c-13 -22 -25 -40 -29 -40 -3 0
-20 -12 -38 -27 -30 -26 -32 -30 -19 -48 14 -19 15 -19 48 6 60 45 65 43 15
-5 -27 -25 -51 -46 -53 -46 -2 0 -8 12 -13 26 -9 22 -15 25 -36 20 -22 -6 -24
-5 -15 13 8 14 7 22 -5 32 -10 8 -12 15 -4 23 5 5 11 26 11 46 1 25 3 28 6 12
4 -22 8 -23 41 -17 20 3 53 15 72 25 19 10 36 19 38 19 2 1 -7 -17 -19 -39z
m3311 25 c0 -8 -7 -15 -16 -15 -14 0 -14 3 -4 15 7 8 14 15 16 15 2 0 4 -7 4
-15z m-4310 -14 c0 -20 -46 -64 -92 -87 -43 -22 -49 -23 -46 -8 1 10 19 26 38
36 19 11 46 31 60 44 25 25 40 30 40 15z m1077 -43 c-3 -8 -6 -5 -6 6 -1 11 2
17 5 13 3 -3 4 -12 1 -19z m2997 1 c5 -4 -1 -12 -14 -19 -30 -16 -47 1 -24 24
9 9 19 13 23 9 3 -4 10 -11 15 -14z m210 3 c6 -9 -29 -52 -42 -52 -10 0 -31
48 -24 55 9 8 60 6 66 -3z m-3220 -81 c-6 -30 -44 -66 -44 -41 0 5 4 10 10 10
5 0 13 12 16 28 13 54 28 57 18 3z m3306 20 c-23 -13 -86 -23 -75 -12 9 9 41
17 75 19 13 1 13 0 0 -7z m-4380 -7 c0 -12 -92 -95 -99 -88 -3 3 16 26 44 50
51 46 55 48 55 38z m3907 -701 c-3 -10 -5 -4 -5 12 0 17 2 24 5 18 2 -7 2 -21
0 -30z m-47 -53 c0 -5 -4 -10 -10 -10 -5 0 -10 5 -10 10 0 6 5 10 10 10 6 0
10 -4 10 -10z m20 -61 c0 -11 -7 -19 -17 -19 -16 0 -16 2 -3 11 11 8 12 12 2
16 -6 2 -10 9 -6 14 8 14 24 0 24 -22z m150 -210 c0 -8 4 -9 13 0 14 11 27 6
27 -11 0 -11 -67 -10 -74 1 -4 5 0 12 6 14 21 9 28 8 28 -4z m-2431 -149 c8
-24 7 -30 -4 -30 -7 0 -17 -9 -20 -21 -8 -25 -18 -16 -34 30 -13 40 -8 51 24
51 17 0 26 -8 34 -30z m30 -102 c-9 -16 -13 -18 -20 -7 -4 8 -3 19 3 26 16 20
30 5 17 -19z m-39 2 c0 -11 -4 -20 -9 -20 -5 0 -11 9 -14 20 -3 13 0 20 9 20
8 0 14 -9 14 -20z m10 -51 c0 -5 -4 -9 -10 -9 -5 0 -10 7 -10 16 0 8 5 12 10
9 6 -3 10 -10 10 -16z m50 -99 c0 -5 -7 -10 -16 -10 -8 0 -12 5 -9 10 3 6 10
10 16 10 5 0 9 -4 9 -10z m-8 -52 c-7 -7 -12 -8 -12 -2 0 14 12 26 19 19 2 -3
-1 -11 -7 -17z m2058 18 c0 -3 -4 -8 -10 -11 -5 -3 -10 -1 -10 4 0 6 5 11 10
11 6 0 10 -2 10 -4z m-2030 -50 c0 -3 -4 -8 -10 -11 -5 -3 -10 -1 -10 4 0 6 5
11 10 11 6 0 10 -2 10 -4z m-7 -51 c-3 -9 -8 -14 -10 -11 -3 3 -2 9 2 15 9 16
15 13 8 -4z"/>
<path d="M2615 5155 c-3 -8 -7 -21 -9 -29 -3 -10 -16 -14 -41 -12 -19 2 -38 0
-40 -5 -3 -4 4 -24 15 -44 22 -39 26 -65 10 -65 -17 0 -11 -27 7 -34 9 -4 58
-11 107 -16 157 -15 190 -33 246 -135 21 -40 22 -40 15 -7 -5 25 -3 32 9 32 9
0 16 8 16 18 0 31 20 -10 20 -43 0 -16 5 -37 11 -45 7 -11 8 -6 4 19 -5 25 -4
32 5 26 18 -11 3 31 -31 88 -16 27 -29 50 -29 53 0 9 37 3 49 -8 11 -11 11 -9
2 10 -6 12 -19 22 -27 22 -8 0 -12 4 -9 10 3 5 -16 20 -42 33 -56 28 -174 42
-245 28 -52 -9 -60 -4 -26 18 l22 14 -22 8 c-24 9 -22 29 2 29 9 0 12 9 8 25
-5 28 -20 33 -27 10z"/>
<path d="M2405 5110 c3 -5 11 -10 16 -10 6 0 7 5 4 10 -3 6 -11 10 -16 10 -6
0 -7 -4 -4 -10z"/>
<path d="M2320 5080 c0 -8 24 -20 41 -20 6 0 8 4 5 9 -8 12 -46 21 -46 11z"/>
<path d="M2775 4517 c-66 -17 -78 -25 -72 -48 3 -10 1 -21 -3 -24 -12 -7 -8
-85 3 -85 5 0 20 9 34 20 34 26 43 17 14 -14 -31 -32 -9 -45 29 -17 26 18 31
19 44 6 8 -8 33 -15 56 -15 23 0 51 -5 62 -11 15 -8 23 -8 31 0 32 32 -64 76
-141 66 -42 -6 -43 -6 -32 14 21 41 105 35 145 -9 23 -25 45 -26 45 -1 0 13
-17 26 -60 44 -33 15 -60 29 -60 33 0 4 32 4 70 1 39 -3 70 -2 70 2 0 39 -142
61 -235 38z"/>
<path d="M3171 4500 c6 -16 29 -49 51 -72 26 -29 31 -32 13 -9 -14 18 -35 51
-46 72 -23 46 -32 51 -18 9z"/>
<path d="M2300 4473 c-45 -6 -64 -23 -85 -79 -21 -55 -14 -66 23 -31 28 27 72
47 100 47 13 -1 9 -8 -14 -28 -16 -16 -43 -45 -58 -65 -25 -33 -26 -38 -13
-52 19 -19 41 -19 56 -1 6 7 30 16 53 19 26 3 48 14 58 26 13 19 19 20 47 9
38 -14 54 -4 27 18 -18 14 -17 15 14 9 29 -6 32 -4 32 18 0 14 -7 38 -14 54
-8 15 -17 36 -20 46 -5 15 -17 17 -88 15 -46 0 -99 -3 -118 -5z m101 -108 c0
-11 -101 -55 -101 -45 0 12 50 47 75 52 22 5 27 3 26 -7z"/>
<path d="M2355 4220 l-30 -8 27 -1 c15 0 30 4 33 9 3 6 5 9 3 9 -2 -1 -16 -5
-33 -9z"/>
<path d="M2698 4081 c-30 -24 -93 -37 -102 -22 -4 6 -27 11 -52 11 -37 0 -44
-3 -44 -20 0 -11 5 -20 10 -20 6 0 10 -17 10 -38 0 -34 3 -38 38 -49 34 -12
39 -11 58 12 12 13 24 30 26 37 4 10 10 9 25 -4 11 -10 29 -18 41 -18 17 0 22
6 22 28 0 20 3 23 9 13 5 -8 7 -20 4 -28 -3 -7 0 -13 6 -13 15 0 14 57 -1 63
-9 3 -6 10 10 22 12 9 22 23 22 31 0 21 -53 18 -82 -5z"/>
<path d="M2893 3935 c-9 -10 -9 -16 -2 -20 14 -9 22 0 17 18 -2 13 -5 13 -15
2z"/>
<path d="M2417 3902 c-40 -41 -49 -82 -18 -82 10 0 34 -6 53 -14 33 -14 34
-14 56 18 18 26 34 35 80 46 77 18 97 21 162 24 48 3 60 -1 92 -25 37 -30 68
-30 68 -2 0 18 -39 52 -60 53 -9 0 -20 4 -25 9 -6 5 -33 5 -65 0 -30 -4 -98
-15 -151 -22 -52 -8 -109 -22 -127 -31 -17 -9 -36 -16 -42 -16 -13 0 -13 30 0
31 6 1 16 2 23 3 17 2 22 46 5 46 -8 0 -31 -17 -51 -38z"/>
<path d="M2316 3721 c-4 -5 -2 -12 3 -15 5 -4 12 -2 15 3 4 5 2 12 -3 15 -5 4
-12 2 -15 -3z"/>
<path d="M2666 3654 c-3 -9 -3 -20 0 -25 8 -13 34 9 34 27 0 19 -26 18 -34 -2z"/>
<path d="M2410 3570 c0 -5 5 -10 10 -10 6 0 10 5 10 10 0 6 -4 10 -10 10 -5 0
-10 -4 -10 -10z"/>
<path d="M3883 5230 c-14 -6 -21 -15 -17 -24 3 -8 -6 -37 -20 -65 -14 -28 -26
-53 -26 -56 0 -3 14 2 31 10 25 13 30 21 25 40 -5 18 2 32 28 58 43 44 34 59
-21 37z"/>
<path d="M1125 4048 c4 -16 2 -29 -5 -33 -9 -6 -9 -10 1 -16 15 -9 39 7 39 26
0 6 -9 20 -21 31 -20 18 -20 18 -14 -8z"/>
<path d="M1045 4002 c-16 -14 -22 -23 -12 -19 10 4 17 2 17 -5 0 -8 6 -6 16 4
9 8 14 23 12 31 -2 13 -9 10 -33 -11z"/>
<path d="M1146 3935 c-18 -14 -18 -15 7 -24 14 -5 28 -15 32 -20 8 -14 45 -14
45 -1 0 6 -7 10 -15 10 -9 0 -15 9 -15 25 0 29 -24 33 -54 10z"/>
<path d="M1063 3575 c-33 -14 -41 -29 -23 -40 13 -8 100 31 100 44 0 15 -39
13 -77 -4z"/>
<path d="M660 3507 l-35 -10 42 -10 c49 -11 93 -3 93 18 0 18 -47 19 -100 2z"/>
<path d="M1094 3441 c-19 -7 -33 -19 -31 -25 6 -16 87 -12 98 5 7 10 11 11 17
2 11 -18 61 -4 55 15 -5 22 -89 23 -139 3z"/>
<path d="M1030 3400 c-9 -6 -10 -10 -3 -10 6 0 15 5 18 10 8 12 4 12 -15 0z"/>
<path d="M628 3375 c-26 -7 -49 -11 -52 -8 -2 3 -9 -5 -16 -16 -12 -24 -5 -45
12 -35 6 4 26 8 45 10 19 2 48 10 65 18 17 9 41 13 54 10 40 -10 27 14 -13 25
-21 6 -40 11 -43 10 -3 0 -26 -7 -52 -14z"/>
<path d="M1050 3148 c-17 -19 -24 -21 -40 -10 -34 21 -145 12 -137 -12 2 -7
26 -10 67 -8 43 3 60 1 56 -7 -5 -7 2 -11 17 -11 21 0 77 46 77 63 0 14 -20 6
-40 -15z"/>
<path d="M1091 3001 c-11 -7 -9 -10 10 -13 15 -2 29 -14 38 -32 l14 -30 24 28
c15 18 21 32 15 38 -14 14 -85 20 -101 9z"/>
<path d="M831 2955 c-35 -13 -71 -30 -79 -39 -26 -26 13 -33 46 -9 46 34 90
53 122 53 16 0 30 5 30 10 0 17 -51 10 -119 -15z"/>
<path d="M172 2074 c1 -9 9 -19 16 -22 9 -3 13 2 10 14 -1 9 -9 19 -16 22 -9
3 -13 -2 -10 -14z"/>
<path d="M374 1904 c5 -10 12 -34 16 -52 9 -35 17 -49 25 -40 7 7 -25 97 -38
105 -7 4 -8 0 -3 -13z"/>
<path d="M460 1826 c0 -8 5 -18 10 -21 6 -3 10 1 10 9 0 8 -4 18 -10 21 -5 3
-10 -1 -10 -9z"/>
<path d="M2525 5530 c3 -5 8 -10 11 -10 2 0 4 5 4 10 0 6 -5 10 -11 10 -5 0
-7 -4 -4 -10z"/>
<path d="M3444 5478 c22 -58 51 -94 39 -49 -8 30 9 26 29 -6 l17 -28 0 55 c0
70 -14 90 -67 90 l-41 0 23 -62z"/>
<path d="M3577 5519 c-5 -20 -5 -20 14 -3 23 20 23 24 5 24 -7 0 -16 -9 -19
-21z"/>
<path d="M3795 5515 l-30 -25 30 6 c17 4 38 11 47 16 10 5 56 9 103 9 46 0 87
5 90 10 4 5 -37 9 -102 9 -101 0 -110 -2 -138 -25z"/>
<path d="M4716 5528 c4 -7 17 -26 29 -43 12 -16 29 -46 38 -65 35 -72 60 -88
71 -45 4 14 11 23 16 20 6 -3 5 -15 -2 -30 -8 -19 -7 -27 5 -39 19 -20 31 -21
24 -2 -3 7 1 25 8 40 12 22 12 26 -1 26 -8 0 -14 4 -14 9 0 5 -9 12 -19 16
-23 7 -35 35 -21 49 5 5 10 25 10 43 l0 33 -76 0 c-57 0 -73 -3 -68 -12z"/>
<path d="M4926 5515 c9 -14 20 -25 25 -25 19 0 25 -2 39 -15 8 -7 25 -16 37
-19 22 -7 39 -38 29 -55 -8 -12 -49 -1 -59 16 -15 25 -27 13 -27 -27 0 -39 0
-39 33 -34 17 4 55 12 82 19 28 7 63 16 78 19 31 7 41 26 51 99 l7 47 -100 0
c-66 0 -101 -4 -103 -11 -3 -9 -9 -9 -25 0 -12 6 -36 11 -53 11 -30 0 -30 0
-14 -25z m139 -15 c3 -5 1 -10 -4 -10 -6 0 -11 5 -11 10 0 6 2 10 4 10 3 0 8
-4 11 -10z"/>
<path d="M3624 5424 l-39 -36 33 19 c37 20 58 41 50 49 -3 2 -23 -12 -44 -32z"/>
<path d="M3808 5409 c-21 -11 -38 -24 -38 -30 0 -9 60 21 85 43 15 13 -7 7
-47 -13z"/>
<path d="M3529 5383 c0 -5 -2 -24 -3 -43 -1 -19 -6 -44 -11 -55 -8 -18 -7 -19
9 -6 17 15 46 63 46 78 0 11 -40 36 -41 26z"/>
<path d="M4897 5213 c-4 -3 -7 -11 -7 -17 0 -6 5 -5 12 2 6 6 9 14 7 17 -3 3
-9 2 -12 -2z"/>
<path d="M5970 5187 c0 -8 -11 -24 -25 -37 -34 -32 -36 -97 -2 -102 20 -3 22
-10 28 -83 4 -63 6 -47 7 78 1 86 0 157 -3 157 -3 0 -5 -6 -5 -13z"/>
<path d="M5916 4403 c-3 -4 -50 -8 -104 -10 -112 -4 -120 -5 -147 -21 -16 -9
8 -11 115 -7 74 2 146 7 159 11 15 5 26 2 32 -7 6 -10 9 -6 9 14 0 23 -4 27
-28 27 -16 0 -32 -3 -36 -7z"/>
<path d="M4781 3582 c-20 -29 -29 -72 -13 -72 4 0 17 18 28 39 27 50 15 75
-15 33z"/>
<path d="M4670 3295 c-19 -20 -47 -43 -61 -50 -23 -13 -79 -81 -79 -98 0 -14
55 7 71 27 15 18 28 21 106 21 79 0 94 3 126 25 55 38 48 52 -43 88 -70 27
-82 26 -120 -13z m30 -36 c0 -14 -30 -38 -47 -39 -21 0 -14 26 10 38 29 14 37
14 37 1z"/>
<path d="M4885 3249 c-7 -20 18 -59 37 -59 11 0 10 37 -2 61 -14 25 -27 24
-35 -2z"/>
<path d="M5197 3143 c-12 -11 -8 -23 8 -23 8 0 15 7 15 15 0 16 -12 20 -23 8z"/>
<path d="M5156 3088 c-9 -34 -8 -38 9 -38 10 0 15 10 15 30 0 35 -15 40 -24 8z"/>
<path d="M5240 3040 c0 -5 5 -10 10 -10 6 0 10 5 10 10 0 6 -4 10 -10 10 -5 0
-10 -4 -10 -10z"/>
<path d="M3701 2834 c0 -11 3 -14 6 -6 3 7 2 16 -1 19 -3 4 -6 -2 -5 -13z"/>
<path d="M2845 2673 c-72 -8 -204 -50 -245 -77 -70 -46 -149 -127 -171 -175
-11 -25 -31 -60 -45 -78 -14 -18 -21 -33 -16 -33 18 0 92 89 108 130 21 52
100 122 155 139 69 21 152 53 174 68 11 7 31 13 45 13 14 0 32 5 40 10 17 11
16 11 -45 3z"/>
<path d="M2951 2649 c-20 -19 -91 -157 -91 -177 0 -4 17 -7 38 -8 20 0 57 -10
82 -21 41 -19 162 -54 186 -53 5 1 -51 25 -124 54 -73 29 -135 56 -138 59 -9
9 4 39 41 96 40 60 42 84 6 50z"/>
<path d="M2530 2620 l-25 -8 25 -1 c14 0 32 4 40 9 13 9 13 10 0 9 -8 -1 -26
-5 -40 -9z"/>
<path d="M2454 2594 c-19 -15 -19 -15 1 -6 11 5 27 12 35 15 13 5 13 6 -1 6
-8 1 -24 -6 -35 -15z"/>
<path d="M4600 2590 c-8 -5 -24 -10 -34 -10 -10 0 -24 -7 -30 -16 -7 -8 -31
-18 -54 -21 -51 -7 -56 -23 -7 -23 23 0 55 13 97 40 35 22 59 40 53 40 -5 0
-17 -5 -25 -10z"/>
<path d="M2390 2560 c-9 -6 -10 -10 -3 -10 6 0 15 5 18 10 8 12 4 12 -15 0z"/>
<path d="M2311 2499 c-29 -28 -64 -76 -79 -107 -28 -60 -29 -63 -31 -99 0 -13
-7 -23 -15 -23 -8 0 -16 -7 -19 -14 -4 -10 -1 -13 8 -10 11 5 13 -2 8 -30 -11
-66 13 -37 31 38 22 94 67 188 117 249 22 26 38 47 36 47 -2 0 -27 -23 -56
-51z"/>
<path d="M2621 2449 c-19 -10 -44 -27 -57 -38 l-22 -19 -12 29 c-16 37 -24 37
-41 -3 -10 -24 -10 -33 -1 -36 7 -2 12 -12 12 -22 0 -21 -25 -44 -40 -35 -5 3
-10 1 -10 -4 0 -6 -6 -11 -13 -11 -23 0 -49 -34 -35 -48 8 -8 18 -7 37 7 14
10 34 21 43 24 10 3 27 21 39 39 19 29 61 65 144 123 30 21 -2 17 -44 -6z"/>
<path d="M3405 2440 c3 -5 11 -10 16 -10 6 0 7 5 4 10 -3 6 -11 10 -16 10 -6
0 -7 -4 -4 -10z"/>
<path d="M3436 2424 c-4 -9 -4 -19 -1 -22 2 -3 7 3 11 12 4 9 4 19 1 22 -2 3
-7 -3 -11 -12z"/>
<path d="M3480 2375 c-22 -53 -22 -85 0 -85 5 0 10 15 10 33 0 17 9 47 20 65
24 39 24 42 6 42 -7 0 -24 -25 -36 -55z"/>
<path d="M2765 2400 c-101 -14 -157 -40 -177 -82 -9 -20 -32 -45 -51 -57 -18
-11 -42 -30 -53 -42 -10 -12 -43 -37 -71 -56 l-53 -34 0 -55 c0 -57 13 -66 23
-17 3 16 16 38 29 51 143 138 181 172 193 172 8 0 19 8 24 19 6 10 25 24 43
30 18 7 52 21 76 32 28 12 65 19 107 19 37 0 65 4 65 10 0 6 -8 10 -19 10 -10
0 -31 2 -47 4 -16 2 -56 0 -89 -4z"/>
<path d="M3263 2349 c21 -11 44 -18 50 -16 7 3 -5 12 -25 21 -53 23 -71 19
-25 -5z"/>
<path d="M2279 2228 c-29 -35 -59 -69 -68 -75 -14 -11 -13 -15 9 -32 29 -23
22 -38 -9 -21 -22 11 -45 5 -36 -10 8 -14 -16 -70 -31 -70 -8 0 -14 -10 -14
-21 0 -19 2 -20 17 -8 14 12 16 12 9 0 -5 -7 -12 -30 -17 -50 -7 -34 -7 -35 7
-16 9 11 26 41 40 67 31 60 84 100 84 63 0 -8 5 -15 10 -15 21 0 9 37 -20 58
-16 13 -30 29 -30 36 0 8 21 40 47 73 64 80 66 83 60 83 -4 0 -30 -28 -58 -62z"/>
<path d="M2285 2120 c-3 -5 -1 -10 4 -10 6 0 11 5 11 10 0 6 -2 10 -4 10 -3 0
-8 -4 -11 -10z"/>
<path d="M2241 2021 c-45 -12 -37 -32 11 -27 27 2 43 9 43 17 0 16 -20 20 -54
10z"/>
<path d="M2386 1939 c7 -59 6 -61 -14 -54 -29 9 -47 -2 -32 -20 8 -10 8 -15 0
-20 -6 -4 -23 -32 -38 -63 -36 -75 -46 -92 -52 -92 -11 0 -52 62 -45 68 3 4
10 0 15 -8 11 -18 35 0 54 44 42 92 56 131 56 152 0 48 -28 29 -135 -91 l-26
-30 4 28 c2 15 1 27 -3 27 -16 0 -55 -53 -52 -71 2 -11 -6 -35 -17 -53 -25
-40 -26 -56 -6 -56 8 0 15 -4 15 -8 0 -16 -13 -21 -29 -12 -15 7 -19 -2 -30
-78 -14 -98 -38 -191 -53 -209 -6 -7 -7 -13 -2 -13 10 1 64 72 83 112 8 15 11
36 9 46 -8 29 81 122 116 122 22 0 28 -6 33 -31 3 -17 13 -33 22 -36 9 -2 24
-9 33 -14 10 -5 26 -9 37 -9 11 0 26 -6 33 -13 8 -8 39 -12 80 -12 59 0 65 2
53 15 -10 11 -11 20 -4 33 13 23 20 22 73 -10 48 -30 54 -46 18 -51 -12 -2
-27 -13 -33 -24 -7 -13 -17 -18 -30 -15 -10 3 -22 1 -25 -4 -7 -12 47 -11 65
0 10 6 25 4 43 -5 32 -16 32 -18 17 -46 -10 -18 -9 -20 5 -15 19 7 22 -13 4
-31 -9 -9 -8 -12 5 -12 11 0 17 -8 17 -25 0 -24 -3 -25 -59 -25 -33 0 -63 -4
-66 -10 -3 -5 2 -10 12 -11 10 0 48 -3 85 -8 77 -8 81 -4 61 54 -8 22 -11 50
-9 61 4 15 0 24 -10 28 -10 4 -14 13 -10 22 3 8 -1 31 -9 51 -8 19 -15 49 -15
65 0 31 -32 67 -60 68 -8 0 -21 9 -28 20 -7 11 -21 20 -32 20 -12 0 -20 7 -20
18 -1 13 -8 9 -31 -16 -21 -24 -28 -39 -24 -53 4 -13 0 -28 -10 -39 -14 -15
-22 -17 -46 -8 -36 13 -37 33 -3 109 38 84 24 97 -16 14 -40 -85 -36 -80 -54
-66 -11 10 -10 21 13 76 21 53 30 65 49 65 13 0 20 4 17 10 -4 6 3 6 21 0 22
-9 25 -8 20 6 -3 8 -6 22 -6 30 0 18 -15 18 -33 -1 -26 -25 -26 -5 0 23 20 22
23 33 18 70 -4 27 -1 49 6 58 9 11 7 14 -10 14 -21 0 -22 -3 -15 -61z m-176
-250 c0 -4 -7 -6 -15 -3 -8 4 -15 10 -15 15 0 4 7 6 15 3 8 -4 15 -10 15 -15z"/>
<path d="M3626 1855 c-8 -8 -18 -24 -21 -35 -3 -11 -11 -20 -16 -20 -5 0 -9
-4 -9 -9 0 -20 42 3 56 30 8 16 19 29 24 29 6 0 10 5 10 10 0 15 -27 12 -44
-5z"/>
<path d="M3965 1846 c-17 -7 -36 -20 -43 -28 -21 -26 33 -10 59 18 26 27 25
28 -16 10z"/>
<path d="M2080 1800 c0 -5 5 -10 11 -10 5 0 7 5 4 10 -3 6 -8 10 -11 10 -2 0
-4 -4 -4 -10z"/>
<path d="M3632 1741 c-63 -48 -87 -71 -73 -71 10 0 30 17 115 93 34 30 13 19
-42 -22z"/>
<path d="M3808 1737 c-26 -18 -48 -35 -48 -39 0 -20 39 -3 80 32 54 48 34 52
-32 7z"/>
<path d="M3525 1740 c-3 -5 -1 -10 4 -10 6 0 11 5 11 10 0 6 -2 10 -4 10 -3 0
-8 -4 -11 -10z"/>
<path d="M2690 1725 c0 -8 2 -15 4 -15 2 0 6 7 10 15 3 8 1 15 -4 15 -6 0 -10
-7 -10 -15z"/>
<path d="M3504 1706 c-45 -45 -79 -71 -91 -68 -8 2 -10 -3 -7 -13 7 -16 24
-21 24 -6 0 5 8 11 18 15 21 7 49 25 73 48 13 12 15 19 6 26 -8 7 -16 6 -23
-2z"/>
<path d="M3240 1682 c0 -16 36 -42 57 -42 32 0 37 29 7 40 -31 12 -64 13 -64
2z"/>
<path d="M3510 1645 c-20 -24 -6 -28 15 -5 10 11 13 20 8 20 -6 0 -16 -7 -23
-15z"/>
<path d="M3216 1641 c-6 -10 42 -41 64 -41 17 0 11 27 -7 33 -10 2 -25 8 -34
12 -10 3 -20 2 -23 -4z"/>
<path d="M3216 1586 c3 -8 -4 -25 -15 -37 -28 -30 -27 -35 10 -43 37 -7 91 26
66 41 -8 4 -19 18 -26 31 -13 24 -44 31 -35 8z"/>
<path d="M3336 1571 c-3 -5 1 -14 9 -21 13 -10 15 -9 15 9 0 21 -14 28 -24 12z"/>
<path d="M3609 1514 c-16 -20 -126 -74 -150 -74 -10 0 -20 -4 -24 -9 -3 -5
-18 -12 -34 -16 -16 -3 -36 -14 -43 -23 -11 -13 -11 -15 4 -9 9 3 35 11 57 17
57 15 183 69 204 88 18 16 23 42 8 42 -5 0 -15 -7 -22 -16z"/>
<path d="M4347 1519 c7 -7 15 -10 18 -7 3 3 -2 9 -12 12 -14 6 -15 5 -6 -5z"/>
<path d="M2440 1500 c0 -5 9 -10 21 -10 11 0 17 5 14 10 -3 6 -13 10 -21 10
-8 0 -14 -4 -14 -10z"/>
<path d="M3147 1493 c-22 -6 -12 -23 14 -23 10 0 19 -4 19 -9 0 -5 12 -11 26
-14 22 -4 25 -2 20 17 -3 11 -6 24 -6 29 0 7 -43 8 -73 0z"/>
<path d="M1251 1414 c0 -11 3 -14 6 -6 3 7 2 16 -1 19 -3 4 -6 -2 -5 -13z"/>
<path d="M3110 1323 c0 -27 9 -33 35 -22 11 4 14 8 6 8 -8 1 -20 9 -27 19 -12
16 -13 15 -14 -5z"/>
<path d="M3145 1260 c-3 -5 -1 -10 4 -10 6 0 11 5 11 10 0 6 -2 10 -4 10 -3 0
-8 -4 -11 -10z"/>
<path d="M1212 1228 c6 -17 36 -34 45 -24 4 4 -1 14 -11 22 -24 17 -39 18 -34
2z"/>
<path d="M3150 1226 c0 -9 6 -16 14 -16 8 0 21 -3 30 -6 11 -4 16 -1 16 10 0
9 -6 16 -14 16 -8 0 -21 3 -30 6 -11 4 -16 1 -16 -10z"/>
<path d="M3160 1180 c-8 -5 -12 -12 -9 -15 4 -3 12 1 19 10 14 17 11 19 -10 5z"/>
<path d="M3140 1135 c0 -8 9 -15 20 -15 17 0 19 -5 14 -25 -4 -16 -2 -25 6
-25 7 0 10 -7 6 -15 -3 -8 -1 -15 4 -15 6 0 10 8 10 18 0 9 3 26 6 37 4 15 -3
25 -25 38 -36 21 -41 21 -41 2z"/>
<path d="M3282 1059 c2 -6 8 -10 13 -10 5 0 11 4 13 10 2 6 -4 11 -13 11 -9 0
-15 -5 -13 -11z"/>
<path d="M3180 1008 c0 -16 19 -38 33 -38 4 0 7 10 5 22 -3 25 -38 39 -38 16z"/>
<path d="M3380 1008 c-19 -5 -47 -8 -62 -6 -26 4 -28 2 -28 -26 0 -52 11 -60
53 -39 20 10 37 23 37 29 0 6 10 18 23 27 29 20 20 26 -23 15z"/>
<path d="M3206 923 c8 -44 12 -53 25 -53 12 0 12 46 -1 71 -18 33 -31 22 -24
-18z"/>
<path d="M2950 720 c0 -5 5 -10 11 -10 5 0 7 5 4 10 -3 6 -8 10 -11 10 -2 0
-4 -4 -4 -10z"/>
<path d="M4092 630 c0 -14 2 -19 5 -12 2 6 2 18 0 25 -3 6 -5 1 -5 -13z"/>
<path d="M4330 618 c0 -19 2 -20 10 -8 13 19 13 30 0 30 -5 0 -10 -10 -10 -22z"/>
<path d="M3594 347 c-7 -19 14 -69 26 -62 18 11 8 75 -11 75 -5 0 -12 -6 -15
-13z"/>
<path d="M4030 280 c0 -5 -13 -7 -29 -4 -32 7 -53 -13 -24 -22 10 -3 26 -10
35 -15 13 -6 21 -3 33 13 19 28 19 38 0 38 -8 0 -15 -4 -15 -10z"/>
<path d="M3037 274 c-12 -13 -7 -51 8 -64 24 -20 40 1 28 36 -10 29 -24 40
-36 28z"/>
<path d="M3100 205 c-8 -9 -8 -15 -2 -15 12 0 26 19 19 26 -2 2 -10 -2 -17
-11z"/>
<path d="M1980 190 c0 -5 5 -10 11 -10 5 0 7 5 4 10 -3 6 -8 10 -11 10 -2 0
-4 -4 -4 -10z"/>
<path d="M3885 120 c-3 -5 1 -10 9 -10 9 0 16 5 16 10 0 6 -4 10 -9 10 -6 0
-13 -4 -16 -10z"/>
<path d="M3947 63 c-2 -5 -7 -20 -11 -35 -6 -27 -5 -28 39 -28 49 0 51 4 12
48 -21 23 -33 27 -40 15z"/>
<path d="M3396 33 c-12 -12 -6 -33 9 -33 8 0 15 6 15 14 0 17 -14 28 -24 19z"/>
</g>
</svg>
